<svg width="19" height="18" viewBox="0 0 19 18" fill="none" xmlns="http://www.w3.org/2000/svg">
<path d="M0.597398 1.1978H2.07438C2.68379 1.1978 3.17912 1.69313 3.17912 2.30254V4.00167V11.4436C3.17912 12.9206 4.27485 14.1424 5.6978 14.3496C5.44563 14.7218 5.30153 15.1721 5.30153 15.6554C5.30153 16.9493 6.35223 18 7.6461 18C8.93996 18 9.99066 16.9493 9.99066 15.6554C9.99066 15.1871 9.84957 14.7518 9.61241 14.3856H11.984C11.7468 14.7518 11.6057 15.1871 11.6057 15.6554C11.6057 16.9493 12.6564 18 13.9503 18C15.2442 18 16.2949 16.9493 16.2949 15.6554C16.2949 15.1811 16.1508 14.7398 15.9076 14.3706C16.547 14.2955 17.0634 13.8152 17.1624 13.1638L18.3302 5.56271C18.4143 5.02235 18.2552 4.47298 17.9009 4.05871C17.5437 3.64443 17.0274 3.40427 16.481 3.40427H4.38292V2.30554C4.38292 1.03269 3.34723 0 2.07738 0H0.6004C0.27018 0 0 0.27018 0 0.6004C0 0.93062 0.264176 1.1978 0.597398 1.1978ZM7.6431 16.7962C7.01268 16.7962 6.49933 16.2829 6.49933 15.6524C6.49933 15.022 7.01268 14.5087 7.6431 14.5087C8.27352 14.5087 8.78686 15.022 8.78686 15.6524C8.78686 16.2829 8.27352 16.7962 7.6431 16.7962ZM13.9473 16.7962C13.3169 16.7962 12.8035 16.2829 12.8035 15.6524C12.8035 15.022 13.3169 14.5087 13.9473 14.5087C14.5777 14.5087 15.0911 15.022 15.0911 15.6524C15.0911 16.2829 14.5777 16.7962 13.9473 16.7962ZM16.9853 4.83622C17.1144 4.98632 17.1684 5.17845 17.1384 5.37659L15.9706 12.9777C15.9526 13.0947 15.8536 13.1788 15.7335 13.1788H6.11508C5.15744 13.1788 4.37692 12.3983 4.37692 11.4406V4.60207H16.475C16.6731 4.60207 16.8562 4.68612 16.9853 4.83622Z" fill="#020A13"/>
</svg>
