<svg width="21" height="18" viewBox="0 0 21 18" fill="none" xmlns="http://www.w3.org/2000/svg">
<path d="M20.2323 7.36606L11.6008 0.469544C10.8279 -0.15471 9.70913 -0.157413 8.94165 0.466841L0.304785 7.36606C-0.0438247 7.64441 -0.103278 8.15516 0.177772 8.50648C0.456119 8.85509 0.966872 8.91184 1.31818 8.63349L2.16403 7.95789V15.884C2.16403 17.0515 3.11258 18 4.28001 18H16.2624C17.4299 18 18.3784 17.0515 18.3784 15.884V7.95789L19.2243 8.63349C19.3729 8.75239 19.5513 8.81185 19.7296 8.81185C19.9674 8.81185 20.2025 8.70645 20.3647 8.50648C20.6403 8.15516 20.5836 7.64711 20.2323 7.36606ZM16.7543 15.884C16.7543 16.157 16.5327 16.3786 16.2597 16.3786H4.27731C4.00437 16.3786 3.78277 16.157 3.78277 15.884V6.66344L9.95775 1.72886C10.1388 1.58293 10.4009 1.58293 10.5847 1.73156L16.7543 6.66344V15.884Z" fill="#020A13"/>
<path d="M7.38232 13.0519C7.38232 13.5005 7.74445 13.8626 8.19304 13.8626H12.3466C12.7952 13.8626 13.1573 13.5005 13.1573 13.0519C13.1573 12.6033 12.7952 12.2412 12.3466 12.2412H8.19304C7.74445 12.2412 7.38232 12.6033 7.38232 13.0519Z" fill="#020A13"/>
</svg>
