<svg width="20" height="20" viewBox="0 0 20 20" fill="none" xmlns="http://www.w3.org/2000/svg">
<path d="M0 7.5H20V11.875H0V7.5Z" fill="#E6E7E8"/>
<path d="M16.875 2.8125H3.125C1.05406 2.8125 0 4.35156 0 6.25V7.5H20V6.25C20 4.35156 18.9459 2.8125 16.875 2.8125Z" fill="#FF9933"/>
<path d="M0 13.125C0 15.0234 1.05406 16.5625 3.125 16.5625H16.875C18.9459 16.5625 20 15.0234 20 13.125V11.875H0V13.125Z" fill="#128807"/>
<path fill-rule="evenodd" clip-rule="evenodd" d="M10.097 7.68213C10.4963 7.68213 10.8866 7.80057 11.2185 8.02246C11.5505 8.24436 11.8091 8.55973 11.9618 8.92867C12.1144 9.29762 12.1542 9.70356 12.0761 10.0951C11.998 10.4867 11.8055 10.8463 11.5229 11.1284C11.2404 11.4105 10.8805 11.6025 10.4888 11.68C10.0971 11.7575 9.69122 11.7171 9.32251 11.5639C8.95381 11.4106 8.63883 11.1515 8.41746 10.8192C8.19608 10.4869 8.07824 10.0964 8.07886 9.69713C8.07977 9.16246 8.29279 8.64999 8.67115 8.27221C9.04951 7.89443 9.56231 7.68221 10.097 7.68213ZM8.75167 8.55557C8.78636 8.59494 8.79261 8.63713 8.76949 8.67244C8.75969 8.6887 8.74456 8.70107 8.72667 8.70744C8.71294 8.71255 8.69818 8.71425 8.68365 8.7124C8.66912 8.71054 8.65525 8.7052 8.64324 8.69682C8.58892 8.7746 8.54115 8.85675 8.50042 8.94244C8.54761 8.97338 8.56323 9.01213 8.54761 9.05494C8.53925 9.07673 8.52272 9.09441 8.50154 9.10421C8.48036 9.11401 8.45619 9.11517 8.43417 9.10744C8.41167 9.15244 8.36199 9.34244 8.36136 9.38244C8.38205 9.3864 8.40066 9.39759 8.41386 9.414C8.4278 9.4303 8.43496 9.45133 8.43386 9.47275C8.42792 9.5315 8.39167 9.5565 8.33636 9.55869C8.32761 9.61525 8.32855 9.80463 8.3373 9.84182C8.39605 9.84807 8.42699 9.87369 8.43199 9.91838C8.43886 9.9665 8.41574 9.99775 8.35949 10.0196C8.37636 10.1124 8.40042 10.2037 8.43199 10.2931C8.45402 10.2864 8.47762 10.2872 8.49917 10.2953C8.52011 10.3043 8.53667 10.3199 8.54542 10.3415C8.55323 10.3584 8.5548 10.3759 8.55073 10.3943C8.54782 10.408 8.54176 10.4209 8.53302 10.4318C8.52429 10.4428 8.51313 10.4515 8.50042 10.4574C8.5423 10.5443 8.58855 10.6262 8.64324 10.7031C8.69199 10.679 8.73448 10.6846 8.76323 10.719C8.77589 10.7331 8.78309 10.7513 8.78355 10.7703C8.78452 10.7843 8.78207 10.7983 8.7764 10.8111C8.77074 10.824 8.76204 10.8353 8.75105 10.844C8.81355 10.9171 8.88011 10.984 8.95261 11.0456C8.99355 11.0096 9.03605 11.004 9.07261 11.0296C9.08917 11.0412 9.10074 11.0565 9.10605 11.0753C9.10986 11.0885 9.11066 11.1025 9.10839 11.1161C9.10611 11.1297 9.10083 11.1427 9.09292 11.154C9.17199 11.2084 9.25355 11.2553 9.33886 11.2959C9.37199 11.2493 9.4098 11.2337 9.45074 11.2493C9.46857 11.2557 9.48404 11.2674 9.49511 11.2828C9.51074 11.3078 9.51292 11.3353 9.50386 11.3646C9.59386 11.3965 9.68449 11.4209 9.77824 11.4374C9.79667 11.3846 9.82855 11.3599 9.87105 11.3631C9.89074 11.3646 9.90855 11.3706 9.92417 11.384C9.94605 11.404 9.95636 11.4293 9.95449 11.4606C10.0507 11.4674 10.1448 11.4681 10.2382 11.4606C10.2451 11.4003 10.2692 11.3699 10.3176 11.3631C10.336 11.3605 10.3547 11.3643 10.3707 11.3737C10.3824 11.3803 10.3925 11.3895 10.4002 11.4005C10.4079 11.4115 10.413 11.4242 10.4151 11.4374C10.5095 11.4199 10.601 11.3959 10.6895 11.3643C10.6817 11.3053 10.696 11.2699 10.7357 11.2515C10.7502 11.2453 10.766 11.2428 10.7817 11.2443C10.7979 11.2456 10.8126 11.2506 10.8245 11.2612C10.836 11.2709 10.8457 11.2828 10.857 11.2949C10.9422 11.2547 11.0239 11.2076 11.1014 11.154C11.0695 11.104 11.0882 11.0562 11.1142 11.0349C11.1232 11.0272 11.1337 11.0213 11.1451 11.0177C11.1564 11.014 11.1683 11.0127 11.1802 11.0137C11.1921 11.0147 11.2036 11.0181 11.2142 11.0236C11.2247 11.0291 11.2341 11.0367 11.2417 11.0459C11.3139 10.984 11.3817 10.9168 11.4423 10.8446C11.407 10.8043 11.4001 10.7618 11.426 10.7253C11.4365 10.7089 11.4527 10.6969 11.4714 10.6915C11.4847 10.6873 11.4988 10.6862 11.5126 10.6883C11.5264 10.6904 11.5396 10.6957 11.551 10.7037C11.6057 10.6249 11.6532 10.5434 11.6939 10.4578C11.6482 10.4271 11.6317 10.3912 11.6454 10.3503C11.6504 10.332 11.6614 10.3161 11.6767 10.3049C11.6888 10.2965 11.7027 10.2909 11.7174 10.2888C11.732 10.2866 11.747 10.2879 11.761 10.2924C11.7814 10.2484 11.832 10.0628 11.8348 10.0178C11.8132 10.0138 11.7937 10.0023 11.7798 9.98525C11.7725 9.97682 11.7671 9.96696 11.7638 9.95631C11.7605 9.94566 11.7595 9.93445 11.7607 9.92338C11.7619 9.90359 11.7701 9.88486 11.7839 9.87057C11.7933 9.86066 11.8048 9.85298 11.8175 9.84812C11.8303 9.84325 11.844 9.84131 11.8576 9.84244C11.8654 9.74792 11.8654 9.65291 11.8576 9.55838C11.7979 9.55244 11.7695 9.52932 11.7617 9.48213C11.7582 9.46428 11.7608 9.44577 11.7692 9.42963C11.7756 9.41714 11.7849 9.40632 11.7962 9.39803C11.8075 9.38973 11.8206 9.38418 11.8345 9.38182C11.8181 9.28845 11.7937 9.19666 11.7617 9.10744C11.7039 9.11713 11.6682 9.1015 11.6492 9.0615C11.6442 9.05081 11.6415 9.03924 11.641 9.02746C11.6406 9.01568 11.6425 9.00394 11.6467 8.99292C11.6508 8.98189 11.6572 8.97181 11.6653 8.96325C11.6734 8.95469 11.6831 8.94783 11.6939 8.94307C11.6534 8.85716 11.6056 8.77487 11.551 8.69713C11.5007 8.72119 11.4598 8.71557 11.431 8.68119C11.4183 8.66667 11.4112 8.64803 11.411 8.62869C11.4105 8.61496 11.4131 8.60128 11.4187 8.58874C11.4244 8.57621 11.4329 8.56517 11.4435 8.5565C11.3818 8.48427 11.3147 8.41688 11.2426 8.35494C11.1995 8.39182 11.1576 8.3965 11.122 8.37088C11.1058 8.36009 11.094 8.34393 11.0885 8.32525C11.0847 8.31214 11.0838 8.29831 11.0861 8.28483C11.0884 8.27134 11.0937 8.25855 11.1017 8.24744C11.0238 8.19314 10.9415 8.14537 10.8557 8.10463C10.8235 8.15088 10.7873 8.16619 10.7464 8.15244C10.7282 8.14664 10.7124 8.13527 10.701 8.11994C10.6928 8.10775 10.6875 8.09378 10.6857 8.07918C10.6838 8.06457 10.6855 8.04974 10.6904 8.03588C10.6013 8.00364 10.5095 7.97927 10.416 7.96307C10.3982 8.01369 10.366 8.03994 10.3245 8.03744C10.3051 8.03682 10.2864 8.02979 10.2714 8.01744C10.2602 8.00805 10.2515 7.99608 10.246 7.98258C10.2405 7.96908 10.2384 7.95445 10.2398 7.93994C10.1454 7.93192 10.0504 7.93202 9.95605 7.94025C9.94948 7.9965 9.92511 8.02869 9.88355 8.03557C9.86486 8.03956 9.84538 8.03713 9.82824 8.02869C9.81545 8.02237 9.80436 8.01309 9.79588 8.00162C9.7874 7.99015 9.78178 7.97683 9.77949 7.96275C9.68608 7.97974 9.59422 8.0043 9.5048 8.03619C9.5148 8.0915 9.49917 8.12775 9.46105 8.14744C9.44448 8.15588 9.42699 8.15932 9.40761 8.15588C9.39305 8.15389 9.37926 8.14815 9.36759 8.13922C9.35592 8.13029 9.34677 8.11848 9.34105 8.10494C9.28761 8.12494 9.11761 8.22338 9.09511 8.24807C9.11824 8.29432 9.11292 8.33525 9.08105 8.36463C9.07204 8.37258 9.06153 8.37865 9.05013 8.38246C9.03874 8.38627 9.02669 8.38776 9.01471 8.38683C9.00273 8.38589 8.99106 8.38256 8.98039 8.37703C8.96972 8.3715 8.96028 8.36388 8.95261 8.35463C8.8805 8.41627 8.81331 8.48346 8.75167 8.55557Z" fill="#010088"/>
<path fill-rule="evenodd" clip-rule="evenodd" d="M10.9626 11.1958C10.9589 11.1917 10.9551 11.1889 10.9523 11.1845C10.7706 10.9068 10.5884 10.6294 10.4058 10.3523C10.4017 10.3445 10.397 10.3367 10.3933 10.3279C10.3508 10.2289 10.3092 10.1298 10.2658 10.0311C10.2643 10.026 10.2623 10.0211 10.2598 10.0164C10.2423 10.0229 10.2264 10.0304 10.2076 10.0376L10.2139 10.0536C10.2529 10.1495 10.2904 10.2458 10.3301 10.3417C10.3408 10.3673 10.3451 10.3942 10.3508 10.4211C10.3814 10.5645 10.4101 10.7086 10.4411 10.8523L10.5467 11.3658C10.5472 11.367 10.5474 11.3683 10.5472 11.3696C10.5471 11.371 10.5466 11.3722 10.5458 11.3733L10.5414 11.3623C10.4558 11.1001 10.3679 10.8383 10.282 10.5761C10.2648 10.5248 10.2495 10.4742 10.2308 10.4229C10.222 10.3973 10.2192 10.3711 10.2151 10.3445C10.2042 10.2701 10.1948 10.1951 10.1826 10.1208C10.1811 10.1029 10.1783 10.0854 10.1758 10.0683C10.175 10.0611 10.1738 10.054 10.1723 10.047C10.1536 10.0489 10.1364 10.0514 10.1176 10.0536C10.1176 10.0611 10.1183 10.0689 10.1189 10.0767C10.1298 10.1683 10.1392 10.2601 10.1523 10.3514C10.1592 10.4014 10.1558 10.4504 10.1529 10.5004C10.1511 10.5426 10.1483 10.5848 10.1464 10.6273C10.1408 10.7129 10.1364 10.7983 10.1304 10.8836L10.1211 11.0598C10.1158 11.1598 10.1095 11.2595 10.1042 11.3589C10.1017 11.387 10.1011 11.4158 10.0983 11.4433L10.0908 11.3486L10.0811 11.1436L10.0698 10.9608C10.0667 10.8983 10.0626 10.8361 10.0592 10.7736C10.0564 10.7326 10.0548 10.6917 10.0523 10.6514C10.0489 10.5867 10.0448 10.522 10.0417 10.4579C10.0386 10.4238 10.0395 10.3894 10.0442 10.3554C10.0508 10.3092 10.0558 10.262 10.0614 10.2151C10.0676 10.1689 10.0729 10.1223 10.0786 10.0767C10.0792 10.0695 10.0792 10.062 10.0801 10.0536L10.0254 10.0464C10.0239 10.0589 10.0211 10.0711 10.0189 10.0836C10.0059 10.179 9.99256 10.2745 9.97888 10.3698C9.97513 10.407 9.96044 10.4414 9.94794 10.4761C9.85169 10.7692 9.75513 11.0626 9.65763 11.3554C9.65544 11.3608 9.6545 11.3658 9.65044 11.3708C9.65044 11.367 9.65044 11.3642 9.652 11.3608C9.69231 11.1633 9.73294 10.9654 9.77481 10.7679C9.80169 10.6367 9.8295 10.5058 9.85606 10.3748L9.86356 10.3533C9.90388 10.2542 9.94263 10.1542 9.98388 10.0551C9.98532 10.0493 9.98741 10.0436 9.99013 10.0383C9.97291 10.0309 9.95562 10.0237 9.93825 10.0167C9.93606 10.0223 9.93263 10.027 9.93075 10.0326C9.88763 10.132 9.84544 10.2317 9.80231 10.3311C9.79962 10.3385 9.79628 10.3458 9.79231 10.3526C9.60792 10.632 9.42406 10.9117 9.24075 11.1917C9.23823 11.1959 9.23495 11.1996 9.23106 11.2026C9.23263 11.1976 9.23544 11.1936 9.23731 11.1892L9.68919 10.2933C9.69308 10.2851 9.69791 10.2775 9.70356 10.2704L9.89669 10.0114C9.90075 10.007 9.90325 10.0029 9.907 9.99826C9.89106 9.9867 9.87825 9.97607 9.86231 9.96389C9.85888 9.96795 9.85575 9.97139 9.85294 9.97545C9.78544 10.0601 9.71888 10.1454 9.65294 10.2298C9.64544 10.2376 9.63856 10.2458 9.63013 10.2529C9.38388 10.4733 9.13763 10.6923 8.89044 10.9129C8.88544 10.917 8.88044 10.9214 8.87419 10.9242C8.877 10.9214 8.87856 10.9179 8.88044 10.9158C9.08325 10.6892 9.2845 10.4629 9.48638 10.2364C9.49794 10.2239 9.5095 10.2114 9.52044 10.1979C9.54356 10.1711 9.5695 10.1473 9.59763 10.1261L9.822 9.94951C9.827 9.94576 9.83075 9.9417 9.83638 9.93795C9.82529 9.92298 9.81383 9.90828 9.802 9.89389C9.797 9.89701 9.79294 9.90014 9.78825 9.90357C9.70231 9.96795 9.61606 10.0317 9.53013 10.0964C9.52051 10.1036 9.51026 10.11 9.4995 10.1154C9.20606 10.2636 8.91106 10.4117 8.617 10.5598C8.61138 10.5623 8.60606 10.5654 8.5995 10.5654L8.61138 10.557L9.16013 10.1976C9.25575 10.1348 9.35169 10.072 9.44669 10.0089C9.45481 10.0042 9.46325 10.0001 9.47044 9.99639C9.57013 9.9542 9.6695 9.9117 9.76825 9.8692C9.77294 9.86732 9.77763 9.86545 9.78325 9.86264L9.76231 9.81107C9.75638 9.81264 9.75263 9.8142 9.74794 9.81576C9.64669 9.85607 9.54638 9.89701 9.4445 9.93701C9.42356 9.94482 9.40075 9.94857 9.37856 9.95326L8.69575 10.0951C8.60981 10.1136 8.52231 10.1317 8.43606 10.1495C8.43259 10.1503 8.42893 10.1499 8.42575 10.1483C8.4495 10.1408 8.47325 10.1323 8.49669 10.1245C8.79169 10.0273 9.08638 9.93045 9.38044 9.83264C9.40356 9.82482 9.42825 9.82264 9.45169 9.81889C9.54669 9.80576 9.64138 9.79201 9.73544 9.77857C9.74122 9.77756 9.74695 9.77631 9.75263 9.77482C9.75075 9.7567 9.74794 9.73857 9.74638 9.71982L9.70075 9.72482L9.512 9.74764C9.47669 9.75232 9.44169 9.75607 9.407 9.76045C9.39856 9.76139 9.39044 9.7617 9.38231 9.76139L9.18356 9.74982L9.06606 9.74326L8.86356 9.73139L8.56825 9.71514C8.497 9.71139 8.42763 9.7067 8.35669 9.7017C8.36794 9.70076 8.38044 9.69889 8.39263 9.69889L8.63481 9.68514L8.95481 9.66701L9.21981 9.65201L9.38606 9.64201C9.39263 9.6417 9.40044 9.64264 9.407 9.64326L9.59763 9.66607L9.73263 9.68232H9.74638C9.74794 9.66451 9.75075 9.64764 9.75263 9.62826C9.74106 9.62576 9.72794 9.62389 9.71638 9.6217C9.63294 9.61014 9.55013 9.59795 9.46669 9.58576C9.44936 9.58378 9.43206 9.58148 9.41481 9.57889C9.40525 9.57759 9.39584 9.5754 9.38669 9.57232C9.13825 9.49076 8.89138 9.40857 8.64325 9.32701C8.5742 9.30438 8.50524 9.28146 8.43638 9.25826C8.43043 9.25669 8.42481 9.25404 8.41981 9.25045L8.46325 9.2592L8.99356 9.36951C9.13544 9.3992 9.2795 9.42857 9.42138 9.45857C9.42992 9.46046 9.43828 9.46307 9.44638 9.46639C9.54638 9.50576 9.64544 9.54639 9.74638 9.58639L9.76138 9.59232C9.76825 9.57514 9.77575 9.55857 9.78325 9.54076C9.77816 9.53772 9.77283 9.53511 9.76731 9.53295C9.66794 9.49107 9.56888 9.44826 9.46981 9.40545C9.46204 9.40216 9.45452 9.39829 9.44731 9.39389C9.167 9.21045 8.88794 9.02607 8.60731 8.84232C8.60361 8.84027 8.60066 8.8371 8.59888 8.83326L8.61013 8.83951C8.8895 8.98014 9.16919 9.12076 9.44919 9.26107C9.49544 9.2842 9.54044 9.31201 9.58169 9.34357C9.64981 9.39639 9.71919 9.44701 9.78856 9.49889C9.79325 9.50232 9.79731 9.50545 9.80231 9.50857L9.83669 9.46514L9.8245 9.45451L9.57044 9.25482C9.56169 9.24795 9.55481 9.24076 9.54731 9.23326C9.32606 8.98545 9.1045 8.73732 8.88388 8.48951C8.88069 8.48695 8.87821 8.48362 8.87669 8.47982C8.88325 8.48045 8.88575 8.48482 8.88856 8.48764C9.02263 8.60639 9.15544 8.72514 9.28856 8.84389L9.63294 9.15076C9.63919 9.15639 9.64513 9.16326 9.65075 9.16951L9.84794 9.42014C9.85294 9.42576 9.85669 9.4317 9.86231 9.4392L9.90763 9.40451C9.90481 9.40014 9.90106 9.3967 9.89888 9.39264C9.8345 9.3067 9.77044 9.22045 9.70544 9.13482C9.69875 9.12474 9.69259 9.11431 9.687 9.10357C9.537 8.80826 9.38825 8.5117 9.23919 8.21607C9.23638 8.21045 9.23356 8.20607 9.23294 8.20014C9.23575 8.20326 9.23856 8.20607 9.24044 8.20889L9.55981 8.69701L9.78575 9.04076C9.79356 9.05389 9.80231 9.06764 9.80731 9.08201C9.8495 9.17826 9.89013 9.27482 9.93106 9.37107C9.93388 9.37545 9.93575 9.38014 9.93856 9.38576L9.99044 9.3642L9.98481 9.35107C9.94575 9.25357 9.90763 9.15607 9.86794 9.0592C9.857 9.03451 9.85294 9.00889 9.84763 8.98326C9.81356 8.82045 9.78075 8.65732 9.74669 8.4942C9.71325 8.33732 9.68138 8.1817 9.64856 8.0242C9.64794 8.02326 9.64856 8.02201 9.64981 8.01889L9.67731 8.10232C9.77544 8.39701 9.87263 8.69232 9.96888 8.98764C9.977 9.01076 9.97981 9.03607 9.98325 9.06014C9.99481 9.14201 10.0064 9.22451 10.0195 9.30701C10.0217 9.32264 10.0226 9.33826 10.0258 9.35545L10.0801 9.34857V9.32795C10.0723 9.26264 10.0639 9.19701 10.0564 9.13201C10.0517 9.09389 10.0483 9.0567 10.0429 9.01951C10.0398 8.9945 10.0398 8.96921 10.0429 8.9442C10.0451 8.9017 10.0483 8.85951 10.0501 8.81732L10.0654 8.56264C10.0683 8.51701 10.0692 8.47076 10.072 8.42514C10.0761 8.36576 10.0792 8.30545 10.0826 8.24576C10.0854 8.20201 10.0876 8.15795 10.0895 8.11451C10.092 8.06295 10.0961 8.0117 10.1004 7.96045C10.1017 7.97451 10.1023 7.98889 10.1029 8.00389C10.1073 8.0667 10.1104 8.12951 10.1142 8.19264L10.1304 8.47889L10.1401 8.63951C10.1451 8.73232 10.1495 8.82545 10.1548 8.91826C10.1564 8.93232 10.157 8.94545 10.1579 8.9592C10.162 8.99545 10.1548 9.03139 10.1517 9.06732L10.1317 9.23107C10.1286 9.26201 10.1239 9.29295 10.1201 9.3242C10.1195 9.3317 10.1195 9.33982 10.1173 9.34889C10.1367 9.3517 10.1542 9.35357 10.1736 9.35607C10.1764 9.34264 10.1776 9.33014 10.1798 9.31701C10.1948 9.21545 10.2092 9.11389 10.2236 9.0117C10.2248 9.0042 10.2279 8.99639 10.2298 8.98857C10.3317 8.68295 10.4317 8.37701 10.5329 8.07076C10.5379 8.0567 10.5417 8.04326 10.5495 8.02982C10.5487 8.03695 10.5475 8.04404 10.5461 8.05107C10.5004 8.27232 10.4529 8.49295 10.4076 8.71357C10.3873 8.81701 10.3658 8.92076 10.3442 9.0242C10.3427 9.03277 10.3399 9.04109 10.3361 9.04889L10.2154 9.35045C10.2133 9.35482 10.2117 9.35951 10.2095 9.36514C10.2283 9.37232 10.2436 9.37951 10.2617 9.3867L10.2689 9.3717L10.3948 9.07576C10.3998 9.06576 10.4036 9.05607 10.4101 9.04795L10.9554 8.21607C10.9589 8.2117 10.9617 8.20732 10.967 8.2042C10.9648 8.20857 10.9633 8.21295 10.9604 8.21732L10.512 9.10795C10.5073 9.11639 10.5026 9.12482 10.497 9.13232C10.432 9.21889 10.3667 9.30545 10.3026 9.39139C10.2995 9.39631 10.2961 9.40101 10.2923 9.40545L10.3367 9.44014C10.3402 9.43641 10.3434 9.43244 10.3464 9.42826C10.4126 9.34389 10.4786 9.2592 10.5458 9.17482C10.5532 9.16533 10.5614 9.15654 10.5704 9.14857C10.8173 8.92795 11.0645 8.70764 11.3117 8.48764C11.3158 8.4842 11.3186 8.48076 11.3251 8.47889L11.317 8.48889C11.2161 8.60295 11.1151 8.71639 11.0126 8.82982C10.8908 8.96576 10.7704 9.10139 10.6495 9.23732C10.6433 9.2442 10.6358 9.25014 10.6292 9.25576L10.3751 9.45545L10.3626 9.46545C10.3745 9.48045 10.3851 9.49482 10.3976 9.50982L10.4111 9.49982L10.6714 9.30482C10.678 9.30009 10.6849 9.29571 10.692 9.2917C10.992 9.14107 11.2901 8.99107 11.5883 8.84045C11.5933 8.83826 11.5973 8.83639 11.6026 8.83639C11.5889 8.84545 11.5761 8.8542 11.5623 8.86264C11.2926 9.03982 11.0229 9.21701 10.7523 9.3942C10.7448 9.39857 10.7379 9.40295 10.7298 9.40639C10.6301 9.44951 10.5295 9.49201 10.4308 9.53482L10.4148 9.54107C10.4233 9.55857 10.4292 9.57514 10.4367 9.59264L10.4511 9.58795C10.5514 9.54826 10.6511 9.5067 10.7523 9.46826C10.7773 9.45826 10.8048 9.45389 10.832 9.44826L11.2923 9.35264C11.4354 9.32326 11.5773 9.29326 11.7208 9.26357C11.7339 9.26076 11.7461 9.25795 11.7598 9.25545C11.7633 9.25545 11.7664 9.25482 11.7714 9.2567L11.7276 9.27107C11.4223 9.37201 11.1179 9.47264 10.8126 9.57232C10.7895 9.58045 10.7639 9.58264 10.7398 9.58639C10.6714 9.5967 10.6039 9.60576 10.5373 9.61545C10.5129 9.61889 10.4889 9.62264 10.4645 9.62576L10.4467 9.62889C10.4486 9.64732 10.4514 9.66451 10.4526 9.68451L10.4998 9.67951L10.6686 9.65951C10.7108 9.6542 10.7548 9.64826 10.7989 9.6442C10.8186 9.64264 10.8386 9.64451 10.8589 9.64545C10.9017 9.64732 10.9445 9.65107 10.9892 9.65295L11.2417 9.66795C11.2792 9.67014 11.3167 9.6717 11.3554 9.6742L11.6129 9.68889C11.6739 9.69264 11.7367 9.69545 11.7973 9.6992C11.8124 9.70006 11.8274 9.70141 11.8423 9.70326L11.7967 9.70701L11.6076 9.71732L11.3736 9.73107L11.197 9.74045C11.1158 9.74545 11.0329 9.75014 10.9511 9.75545C10.9061 9.75732 10.8598 9.7617 10.8145 9.76201C10.7886 9.76264 10.7614 9.75764 10.7361 9.75482C10.6805 9.74831 10.625 9.74164 10.5695 9.73482L10.4629 9.72201H10.4526C10.4514 9.74014 10.4486 9.75795 10.4467 9.77701C10.5568 9.79332 10.6671 9.80926 10.7773 9.82482C10.8098 9.82889 10.8383 9.8417 10.8689 9.85139L11.7576 10.1448C11.7634 10.146 11.7688 10.1485 11.7736 10.152C11.7661 10.1508 11.7589 10.1495 11.7514 10.1489L10.9795 9.98795L10.7758 9.94545C10.7692 9.94357 10.7604 9.94107 10.7533 9.93764C10.6529 9.89795 10.5523 9.85732 10.4514 9.81701L10.4379 9.81232C10.4306 9.82944 10.423 9.84642 10.4151 9.86326L10.4317 9.87107C10.5314 9.91357 10.6304 9.95576 10.7295 9.99857C10.7373 10.002 10.7451 10.0061 10.7533 10.0117L11.5851 10.5567C11.5892 10.5598 11.5945 10.5636 11.5979 10.5695C11.5939 10.567 11.5892 10.5654 11.5858 10.5629L11.1523 10.3454C11.0011 10.2686 10.8486 10.1923 10.6958 10.1154C10.686 10.1106 10.6769 10.1046 10.6686 10.0976C10.5826 10.0336 10.4958 9.9692 10.4098 9.90451C10.406 9.90127 10.4019 9.89835 10.3976 9.89576C10.3858 9.91014 10.3751 9.9242 10.3626 9.9392L10.3745 9.94857C10.4583 10.0154 10.5436 10.0823 10.6276 10.1489C10.6372 10.1557 10.6459 10.1637 10.6536 10.1726L11.3158 10.9136C11.3185 10.9173 11.3206 10.9214 11.322 10.9258C11.3186 10.922 11.3139 10.9195 11.3104 10.9167C11.062 10.6945 10.8133 10.4736 10.5642 10.2517C10.5585 10.2467 10.5535 10.241 10.5492 10.2348L10.3467 9.9767C10.3439 9.97264 10.3404 9.96889 10.337 9.96482C10.3226 9.9767 10.3086 9.98732 10.2942 9.99982C10.2954 10.0036 10.2983 10.0076 10.3008 10.0114L10.4973 10.2733C10.5029 10.2809 10.5079 10.2889 10.5123 10.2973C10.6614 10.5929 10.8101 10.8892 10.9589 11.1851C10.9613 11.1892 10.9629 11.1936 10.9636 11.1983H10.9626V11.1958Z" fill="#010088"/>
<path fill-rule="evenodd" clip-rule="evenodd" d="M10.9595 11.1958C10.9626 11.1989 10.9645 11.2024 10.967 11.2052C10.9654 11.2058 10.9654 11.2067 10.9635 11.2071C10.9629 11.2027 10.9607 11.1999 10.9601 11.1958H10.9595Z" fill="#010088"/>
</svg>
